<svg width="40" height="40" viewBox="0 0 40 40" fill="none" xmlns="http://www.w3.org/2000/svg">
<path d="M36.0808 27.2773L30.425 26.6315C29.7599 26.5534 29.0858 26.627 28.4533 26.8469C27.8209 27.0667 27.2464 27.427 26.7732 27.9008L22.676 31.9979C16.3553 28.7824 11.2175 23.6446 8.00205 17.3239L12.1215 13.2044C13.0789 12.2469 13.5465 10.9109 13.3907 9.55262L12.7449 3.94129C12.6192 2.85485 12.098 1.85268 11.2808 1.12582C10.4636 0.398952 9.40747 -0.00178153 8.31379 5.95414e-06H4.46159C1.94541 5.95414e-06 -0.14769 2.09312 0.00817975 4.60931C1.18833 23.6255 16.3967 38.8117 35.3905 39.9918C37.9067 40.1477 39.9998 38.0546 39.9998 35.5384V31.6862C40.0221 29.4372 38.3298 27.5445 36.0808 27.2773Z" fill="black"/>
</svg>
