<svg width="42" height="41" viewBox="0 0 42 41" fill="none" xmlns="http://www.w3.org/2000/svg">
<path fill-rule="evenodd" clip-rule="evenodd" d="M16.0064 27.8456C15.893 28.2566 15.4578 28.5006 15.0344 28.3904C11.3036 27.4199 8.70932 24.1376 8.70932 20.3878C8.70932 16.638 11.3036 13.3556 15.0344 12.3851C15.4578 12.275 15.893 12.5189 16.0064 12.93C16.1199 13.341 15.8686 13.7635 15.4452 13.8737C12.4084 14.6637 10.2967 17.3354 10.2967 20.3878C10.2967 23.4401 12.4084 26.1119 15.4452 26.9019C15.8686 27.012 16.1199 27.4345 16.0064 27.8456Z" fill="black"/>
<path fill-rule="evenodd" clip-rule="evenodd" d="M19.3676 0.062362C20.4566 -0.0207781 21.5507 -0.0207778 22.6395 0.0623058L23.1349 0.100109L24.3429 3.72304C25.1405 3.8737 25.926 4.07863 26.6939 4.3361L29.6053 1.78526L30.0538 1.99292C31.0398 2.44944 31.9874 2.98053 32.8877 3.58133L33.2972 3.85458L32.4773 7.57832C33.0904 8.09586 33.6653 8.65457 34.1978 9.25045L38.0329 8.45465L38.3143 8.85222C38.9331 9.72631 39.48 10.6462 39.9504 11.6033L40.1643 12.0388L37.5365 14.8658C37.8008 15.6116 38.011 16.3745 38.1653 17.149L41.8962 18.3214L41.9354 18.8021C42.0215 19.8596 42.0215 20.922 41.9354 21.9795L41.8962 22.4601L38.1647 23.6327C38.0097 24.4069 37.7988 25.1697 37.5333 25.9154L40.1601 28.7418L39.9464 29.1771C39.4764 30.1345 38.9292 31.0545 38.3106 31.9284L38.0292 32.3259L34.1931 31.5302C33.6602 32.1253 33.0848 32.6833 32.471 33.2003L33.2906 36.9233L32.8813 37.1966C31.9811 37.7975 31.0334 38.3284 30.0477 38.7851L29.5992 38.9928L26.6869 36.4416C25.919 36.6981 25.1332 36.9022 24.3354 37.052L23.1278 40.6742L22.6325 40.7121C21.5434 40.7953 20.4492 40.7953 19.3603 40.7122L18.8649 40.6744L17.6569 37.0514C16.8595 36.9008 16.074 36.6959 15.3062 36.4384L12.3949 38.9893L11.9464 38.7816C10.9602 38.3251 10.0126 37.794 9.11247 37.1933L8.70301 36.9201L9.52267 33.1962C8.90964 32.6787 8.33476 32.12 7.80238 31.5241L3.96739 32.3199L3.68592 31.9224C3.0669 31.0483 2.52006 30.1283 2.04972 29.1713L1.83572 28.7359L4.46355 25.9087C4.19934 25.1631 3.98913 24.4002 3.83486 23.6256L0.10381 22.4532L0.0646356 21.9725C-0.021545 20.915 -0.0215457 19.8526 0.0646364 18.7952L0.103814 18.3146L3.83528 17.1418C3.99046 16.3676 4.20151 15.605 4.46672 14.8594L1.83913 12.0328L2.05305 11.5974C2.52335 10.6401 3.07049 9.7202 3.6891 8.8463L3.97053 8.44872L7.80639 9.24448C8.33939 8.64932 8.91485 8.09126 9.5286 7.57434L8.70894 3.85098L9.11846 3.57775C10.0189 2.97701 10.9663 2.44613 11.952 1.98949L12.4006 1.78172L15.3127 4.33292C16.0808 4.07639 16.8666 3.8723 17.6644 3.72253L18.8722 0.100183L19.3676 0.062362ZM19.9774 1.46858L18.8015 4.99513L18.3558 5.06705C17.3491 5.22948 16.361 5.48618 15.4049 5.83283L14.9823 5.98605L12.1483 3.50329C11.5381 3.80471 10.9448 4.13722 10.3708 4.49956L11.1688 8.12445L10.8198 8.4031C10.0316 9.03256 9.30805 9.73423 8.659 10.4985L8.37195 10.8366L4.63863 10.0621C4.26539 10.6193 3.92279 11.1953 3.61236 11.7877L6.17036 14.5395L6.0118 14.9502C5.65347 15.8782 5.38804 16.8371 5.21948 17.8141L5.14494 18.2461L1.51288 19.3876C1.47641 20.0513 1.47641 20.7164 1.51288 21.3801L5.14573 22.5216L5.2198 22.9544C5.38711 23.9318 5.65152 24.8911 6.00854 25.8192L6.16633 26.2294L3.60901 28.9808C3.91949 29.5733 4.26201 30.1494 4.63529 30.7065L8.36913 29.9317L8.65616 30.2706C9.30431 31.0358 10.0271 31.7383 10.8144 32.3685L11.1626 32.6472L10.3648 36.2716C10.9387 36.6339 11.5321 36.9665 12.1424 37.2678L14.9766 34.7844L15.3997 34.9384C16.3554 35.2863 17.3433 35.544 18.3494 35.7077L18.7944 35.78L19.97 39.306C20.6537 39.3412 21.3389 39.3411 22.0226 39.3059L23.1982 35.7794L23.644 35.7075C24.6508 35.545 25.6388 35.2883 26.5946 34.9417L27.0172 34.7885L29.8514 37.2713C30.4617 36.9699 31.055 36.6373 31.6288 36.275L30.8308 32.6501L31.1798 32.3715C31.9681 31.7421 32.6915 31.0404 33.3406 30.2761L33.6276 29.9382L37.3611 30.7126C37.7343 30.1554 38.0769 29.5794 38.3871 28.9869L35.8293 26.2349L35.9882 25.8241C36.3469 24.8967 36.6119 23.9377 36.7805 22.9604L36.855 22.5284L40.4871 21.3871C40.5236 20.7233 40.5236 20.0582 40.4871 19.3944L36.8545 18.2529L36.7804 17.8202C36.6131 16.843 36.3486 15.8836 35.9915 14.9554L35.8336 14.5451L38.3911 11.7938C38.0806 11.2013 37.738 10.6252 37.3648 10.068L33.6311 10.8428L33.344 10.504C32.6959 9.73886 31.9729 9.03633 31.1855 8.40589L30.8374 8.1272L31.6353 4.50305C31.0614 4.14066 30.468 3.80809 29.8577 3.50673L27.0233 5.99008L26.6003 5.83611C25.6446 5.48823 24.6569 5.23049 23.6505 5.06685L23.2055 4.99449L22.0298 1.46855C21.3462 1.43338 20.661 1.43339 19.9774 1.46858Z" fill="black"/>
<path fill-rule="evenodd" clip-rule="evenodd" d="M24.8692 12.9614C25.1522 12.6457 25.6441 12.6134 25.9679 12.8893L34.2571 19.9506C34.4286 20.0967 34.5259 20.3087 34.5234 20.5307C34.5208 20.7527 34.4187 20.9625 34.2439 21.1049L25.906 27.8957C25.576 28.1645 25.0849 28.1216 24.8092 27.7998C24.5335 27.478 24.5776 26.9993 24.9076 26.7305L32.5461 20.5093L24.9432 14.0326C24.6194 13.7567 24.5863 13.2771 24.8692 12.9614Z" fill="black"/>
<path fill-rule="evenodd" clip-rule="evenodd" d="M16.8072 16.478C16.9209 16.8908 16.6689 17.3151 16.2443 17.4257C14.8652 17.7849 13.9063 18.9996 13.9063 20.3874C13.9063 21.6418 14.6897 22.7548 15.8586 23.2225L24.0968 16.2466C24.3968 15.9926 24.8438 15.9929 25.1435 16.2474L29.4137 19.8742C29.589 20.0231 29.6885 20.2392 29.6859 20.4655C29.6833 20.6918 29.5789 20.9057 29.4002 21.0508L25.1049 24.5386C24.7675 24.8126 24.2655 24.7688 23.9836 24.4409C23.7017 24.1129 23.7468 23.6249 24.0842 23.3509L27.6645 20.4437L24.6189 17.857L16.5611 24.6801C16.3614 24.8492 16.0881 24.9107 15.8322 24.844C13.7571 24.3036 12.3142 22.4757 12.3142 20.3874C12.3142 18.2992 13.7571 16.4713 15.8322 15.9308C16.2569 15.8202 16.6934 16.0652 16.8072 16.478Z" fill="black"/>
</svg>
