<svg width="377" height="325" viewBox="0 0 377 325" fill="none" xmlns="http://www.w3.org/2000/svg">
<path d="M116 4.54352V79.5435H147.059C157.02 79.5435 162 75.1802 162 66.4538V51.8313C162 46.4067 160.235 43.0263 156.706 41.6898C160.235 40.1961 162 36.5402 162 30.7226V17.5151C162 8.8673 157.02 4.54352 147.059 4.54352H116ZM132.589 16.1H142.235C144.353 16.1 145.412 17.0829 145.412 19.0483V33.0813C145.412 35.0467 144.353 36.0292 142.235 36.0292H132.589V16.1ZM132.589 47.586H142.235C143.412 47.586 144.235 47.8217 144.706 48.2934C145.177 48.6865 145.412 49.3942 145.412 50.4162V65.0387C145.412 67.0041 144.353 67.987 142.235 67.987H132.589V47.586Z" fill="black"/>
<path d="M184.014 21.5435C174.671 21.5435 170 25.879 170 34.5496V66.5374C170 75.2081 174.671 79.5435 184.014 79.5435H186.889C191.999 79.5435 195.153 77.6296 196.351 73.802V79.5435H213V21.5435H196.591V28.1053C195.473 23.7309 192.239 21.5435 186.889 21.5435H184.014ZM190.003 33.8468H192.758C195.153 33.8468 196.351 35.0964 196.351 37.5961V63.4909C196.351 65.9906 195.153 67.2406 192.758 67.2406H190.003C187.847 67.2406 186.769 66.264 186.769 64.3111V36.7759C186.769 34.823 187.847 33.8468 190.003 33.8468Z" fill="black"/>
<path d="M239 79.5435H223V0.543518H239V79.5435Z" fill="black"/>
<path d="M0 99.5435H17V174.544H0V99.5435Z" fill="black"/>
<path d="M53.3872 115.544H56.312C65.4373 115.544 70 119.954 70 128.774V174.544H53.6212V131.038C53.6212 129.052 52.5682 128.059 50.4624 128.059H47.6546C45.3928 128.059 44.2618 129.33 44.2618 131.873V174.544H28V115.544H44.0279V122.218C45.1198 117.768 48.2396 115.544 53.3872 115.544Z" fill="black"/>
<path d="M115 162.553V174.544H76V162.553L96.6818 127.767H77.4182V115.776H114.173V127.767L93.2545 162.553H115ZM104.6 96.5435V110.434H87.9364V96.5435H104.6Z" fill="black"/>
<path d="M132.937 190.544H124.017V178.123H131.391C133.214 178.123 134.642 177.805 135.672 177.168C136.782 176.61 137.615 175.456 138.17 173.704L138.765 171.316H131.748L117 115.544H134.245L142.095 156.626L149.231 115.544H166L152.085 176.093C150.737 180.87 148.557 184.453 145.544 186.841C142.61 189.309 138.408 190.544 132.937 190.544Z" fill="black"/>
<path d="M196.387 115.544H199.312C208.437 115.544 213 119.954 213 128.774V174.544H196.621V131.038C196.621 129.052 195.568 128.059 193.462 128.059H190.655C188.393 128.059 187.262 129.33 187.262 131.873V174.544H171V115.544H187.028V122.218C188.12 117.768 191.24 115.544 196.387 115.544Z" fill="black"/>
<path d="M223 108.297V95.5435H240V108.297H223ZM239.648 174.544H223.352V116.091H239.648V174.544Z" fill="black"/>
<path d="M263.803 115.544C253.935 115.544 249 119.954 249 128.774V161.313C249 170.134 253.935 174.544 263.803 174.544H276.962C286.909 174.544 291.883 170.134 291.883 161.313V155.592H276.139V159.525C276.139 160.638 275.904 161.433 275.434 161.909C274.965 162.386 274.181 162.624 273.085 162.624H267.798C266.623 162.624 265.801 162.426 265.331 162.028C264.861 161.552 264.626 160.797 264.626 159.764V149.632H292V128.774C292 119.954 287.026 115.544 277.079 115.544H263.803ZM267.798 127.463H273.202C274.299 127.463 275.082 127.701 275.552 128.178C276.022 128.575 276.257 129.29 276.257 130.323V139.859H264.626V130.323C264.626 129.29 264.861 128.575 265.331 128.178C265.801 127.701 266.623 127.463 267.798 127.463Z" fill="black"/>
<path d="M327.968 115.544H330V129.879H324.143C319.123 129.879 316.614 132.643 316.614 138.172V174.544H300V115.899H316.374V124.311C317.012 121.704 318.327 119.611 320.319 118.031C322.311 116.373 324.861 115.544 327.968 115.544Z" fill="black"/>
<path d="M348.014 115.544C338.671 115.544 334 119.954 334 128.774V161.313C334 170.134 338.671 174.544 348.014 174.544H350.889C355.999 174.544 359.153 172.597 360.351 168.703V174.544H377V115.544H360.591V122.218C359.473 117.768 356.239 115.544 350.889 115.544H348.014ZM354.003 128.059H356.758C359.153 128.059 360.351 129.33 360.351 131.873V158.214C360.351 160.757 359.153 162.028 356.758 162.028H354.003C351.847 162.028 350.769 161.035 350.769 159.049V131.039C350.769 129.052 351.847 128.059 354.003 128.059Z" fill="black"/>
<path d="M136.982 229.933C136.982 231.662 136.982 234.272 136.982 237.765C140.566 237.765 145.905 237.765 153 237.765C153 239.493 153 242.086 153 245.544C147.679 245.544 139.679 245.544 129 245.544C129 244.662 129 243.356 129 241.628C129 240.781 129 239.493 129 237.765C129 236.459 129 234.837 129 232.896C129 230.921 129 228.628 129 226.017C129 224.959 129.398 224.041 130.195 223.265C130.955 222.525 131.896 222.154 133.018 222.154C135.661 222.154 139.661 222.154 145.018 222.154C145.018 220.39 145.018 217.78 145.018 214.322C143.244 214.322 140.566 214.322 136.982 214.322C136.982 214.993 136.982 215.963 136.982 217.233C135.208 217.233 132.548 217.233 129 217.233C129 215.716 129 213.44 129 210.406C129 209.348 129.398 208.431 130.195 207.655C130.955 206.914 131.896 206.544 133.018 206.544C136.566 206.544 141.905 206.544 149.036 206.544C150.122 206.544 151.063 206.914 151.86 207.655C152.62 208.431 153 209.348 153 210.406C153 213.899 153 219.103 153 226.017C153 227.111 152.62 228.046 151.86 228.822C151.063 229.563 150.122 229.933 149.036 229.933C146.357 229.933 142.339 229.933 136.982 229.933Z" fill="black"/>
<path d="M165.018 206.544C163.896 206.544 162.955 206.914 162.195 207.655C161.398 208.431 161 209.348 161 210.406V221.837V229.88V241.628C161 242.721 161.398 243.638 162.195 244.379C162.955 245.155 163.896 245.544 165.018 245.544H181.036C182.122 245.544 183.063 245.155 183.859 244.379C184.62 243.638 185 242.721 185 241.628V210.406C185 209.348 184.62 208.431 183.859 207.655C183.063 206.914 182.122 206.544 181.036 206.544H165.018ZM168.982 214.322H177.018V236.23V237.765H168.982V226.017V214.322Z" fill="black"/>
<path d="M199.982 229.933C199.982 231.662 199.982 234.272 199.982 237.765C203.566 237.765 208.905 237.765 216 237.765C216 239.493 216 242.086 216 245.544C210.679 245.544 202.679 245.544 192 245.544C192 244.662 192 243.356 192 241.628C192 240.781 192 239.493 192 237.765C192 236.459 192 234.837 192 232.896C192 230.921 192 228.628 192 226.017C192 224.959 192.398 224.041 193.195 223.265C193.955 222.525 194.896 222.154 196.018 222.154C198.661 222.154 202.661 222.154 208.018 222.154C208.018 220.39 208.018 217.78 208.018 214.322C206.244 214.322 203.566 214.322 199.982 214.322C199.982 214.993 199.982 215.963 199.982 217.233C198.208 217.233 195.548 217.233 192 217.233C192 215.716 192 213.44 192 210.406C192 209.348 192.398 208.431 193.195 207.655C193.955 206.914 194.896 206.544 196.018 206.544C199.566 206.544 204.905 206.544 212.036 206.544C213.122 206.544 214.063 206.914 214.86 207.655C215.62 208.431 216 209.348 216 210.406C216 213.899 216 219.103 216 226.017C216 227.111 215.62 228.046 214.86 228.822C214.063 229.563 213.122 229.933 212.036 229.933C209.357 229.933 205.339 229.933 199.982 229.933Z" fill="black"/>
<path d="M231.982 214.322C231.982 216.051 231.982 218.662 231.982 222.154C234.661 222.154 238.679 222.154 244.036 222.154C245.122 222.154 246.063 222.525 246.86 223.265C247.62 224.041 248 224.959 248 226.017C248 229.51 248 234.713 248 241.628C248 242.545 247.729 243.356 247.186 244.062C246.606 244.767 245.882 245.226 245.014 245.438C245.014 245.473 245.014 245.508 245.014 245.544C241.249 245.544 235.584 245.544 228.018 245.544C226.896 245.544 225.955 245.155 225.195 244.379C224.398 243.639 224 242.721 224 241.628C224 239.899 224 237.306 224 233.849C225.774 233.849 228.434 233.849 231.982 233.849C231.982 234.695 231.982 236.001 231.982 237.765C233.792 237.765 236.471 237.765 240.018 237.765C240.018 236.001 240.018 233.39 240.018 229.933C238.244 229.933 235.566 229.933 231.982 229.933C231.113 229.933 229.792 229.933 228.018 229.933C227.113 229.933 225.774 229.933 224 229.933C224 228.204 224 226.035 224 223.424C224 220.814 224 217.78 224 214.322C224 213.229 224 211.606 224 209.454C224 208.819 224 207.849 224 206.544C229.321 206.544 237.321 206.544 248 206.544C248 208.272 248 210.865 248 214.322C244.452 214.322 239.113 214.322 231.982 214.322Z" fill="black"/>
<path fill-rule="evenodd" clip-rule="evenodd" d="M36.5039 218.55C33.702 210.619 31.5293 202.481 30 194.212L44.3202 191.544C45.4162 197.47 46.8753 203.32 48.6908 209.061L77.5334 210.544L79.3668 214.591C82.5302 221.575 86.3596 228.235 90.8004 234.48L93.373 238.098L80.2367 263.884C83.1989 267.136 86.3071 270.253 89.5513 273.224L115.267 260.045L118.869 262.626C125.094 267.088 131.732 270.938 138.69 274.12L142.717 275.961L144.196 304.879C148.386 306.211 152.634 307.353 156.927 308.3L172.627 283.992L177.035 284.423C184.649 285.167 192.316 285.169 199.93 284.436L204.33 284.012L220.03 308.314C224.324 307.367 228.571 306.226 232.76 304.894L234.239 275.969L238.274 274.13C245.24 270.956 251.88 267.115 258.107 262.662L261.707 260.088L287.422 273.262C290.665 270.291 293.773 267.174 296.735 263.921L283.597 238.129L286.179 234.509C290.629 228.272 294.464 221.616 297.637 214.634L299.473 210.595L328.31 209.112C330.127 203.372 331.586 197.523 332.678 191.598L347 194.259C345.474 202.533 343.299 210.673 340.495 218.604L338.867 223.209L308.968 224.746C306.476 229.778 303.67 234.647 300.565 239.326L314.181 266.057L311.015 269.777C305.569 276.175 299.628 282.133 293.251 287.595L289.549 290.766L262.884 277.105C258.216 280.213 253.357 283.023 248.334 285.519L246.801 315.499L242.209 317.131C234.303 319.941 226.188 322.119 217.944 323.653L213.156 324.544L196.875 299.342C191.283 299.693 185.672 299.691 180.077 299.334L163.802 324.529L159.014 323.639C150.769 322.105 142.654 319.925 134.749 317.119L130.155 315.487L128.621 285.498C123.603 282.997 118.747 280.181 114.082 277.068L87.4264 290.728L83.7235 287.557C77.3445 282.094 71.4037 276.137 65.9576 269.741L62.7893 266.021L76.4116 239.281C73.314 234.601 70.513 229.729 68.026 224.695L38.1315 223.157L36.5039 218.55Z" fill="#0B0B0B"/>
</svg>
