<svg width="42" height="34" viewBox="0 0 42 34" fill="none" xmlns="http://www.w3.org/2000/svg">
<path d="M6.60938 0.774536H34.5156C36.2685 0.774536 37.9497 1.47088 39.1892 2.71038C40.4287 3.94988 41.125 5.631 41.125 7.38391V26.4777C41.125 28.2306 40.4287 29.9117 39.1892 31.1512C37.9497 32.3907 36.2685 33.087 34.5156 33.087H6.60938C4.85646 33.087 3.17534 32.3907 1.93584 31.1512C0.696343 29.9117 0 28.2306 0 26.4777V7.38391C0 5.631 0.696343 3.94988 1.93584 2.71038C3.17534 1.47088 4.85646 0.774536 6.60938 0.774536ZM39.6562 8.42085V7.38391C39.6562 6.02053 39.1147 4.71299 38.1506 3.74894C37.1865 2.78489 35.879 2.24329 34.5156 2.24329H6.60938C5.246 2.24329 3.93846 2.78489 2.9744 3.74894C2.01035 4.71299 1.46875 6.02053 1.46875 7.38391V8.42085L20.5625 19.0282L39.6562 8.42085ZM1.46875 10.1011V26.4777C1.46875 27.841 2.01035 29.1486 2.9744 30.1126C3.93846 31.0767 5.246 31.6183 6.60938 31.6183H34.5156C35.879 31.6183 37.1865 31.0767 38.1506 30.1126C39.1147 29.1486 39.6562 27.841 39.6562 26.4777V10.1011L20.9194 20.5101C20.8102 20.5708 20.6874 20.6027 20.5625 20.6027C20.4376 20.6027 20.3148 20.5708 20.2056 20.5101L1.46875 10.1011Z" fill="black"/>
</svg>
