<svg width="40" height="41" viewBox="0 0 40 41" fill="none" xmlns="http://www.w3.org/2000/svg">
<path d="M39.9825 31.3119C39.6369 33.9337 38.3486 36.3399 36.3584 38.0813C34.3682 39.8227 31.8121 40.78 29.1676 40.7745C13.0838 40.7745 2.34116e-05 27.691 2.34116e-05 11.6075C-0.00545841 8.96308 0.951904 6.40706 2.69329 4.41689C4.43468 2.42671 6.84101 1.13848 9.46282 0.792813C9.99994 0.727514 10.5438 0.838228 11.0126 1.10833C11.4814 1.37843 11.85 1.79334 12.0629 2.29075L16.4589 12.1117C16.6232 12.4925 16.6902 12.9082 16.6538 13.3214C16.6174 13.7345 16.4789 14.1321 16.2505 14.4784C16.2318 14.5055 16.213 14.5326 16.1922 14.5576L11.7754 19.8097C11.7061 19.9247 11.6664 20.0552 11.6598 20.1894C11.6533 20.3235 11.6801 20.4572 11.7379 20.5785C13.3713 23.9222 16.8735 27.3973 20.2569 29.0306C20.3791 29.0873 20.5134 29.113 20.6478 29.1053C20.7823 29.0977 20.9128 29.057 21.0278 28.9869L26.2092 24.5868C26.2342 24.5656 26.2606 24.5461 26.2884 24.5285C26.6347 24.2988 27.0329 24.1591 27.4469 24.122C27.8609 24.0849 28.2775 24.1516 28.6593 24.316L38.4971 28.7244C38.9899 28.9387 39.4006 29.3062 39.6681 29.7723C39.9357 30.2383 40.0459 30.7782 39.9825 31.3119ZM37.8262 30.2452L27.9905 25.8368C27.8709 25.7867 27.7411 25.7656 27.6118 25.7754C27.4825 25.7851 27.3574 25.8255 27.2467 25.8931L22.0841 30.2931L22.007 30.3515C21.648 30.5912 21.2331 30.7338 20.8027 30.7656C20.3722 30.7973 19.9409 30.7171 19.5506 30.5327C15.8005 28.7223 12.0692 25.016 10.2587 21.3097C10.0725 20.9225 9.98923 20.4938 10.017 20.065C10.0447 19.6362 10.1825 19.2218 10.417 18.8618C10.4358 18.8326 10.4566 18.8076 10.4774 18.7805L14.8922 13.5305C14.9583 13.4179 14.9971 13.2914 15.0055 13.1612C15.0138 13.0309 14.9914 12.9005 14.9401 12.7804L10.5358 2.9595C10.4737 2.80726 10.368 2.67677 10.2319 2.58446C10.0959 2.49215 9.93557 2.44215 9.77117 2.44075C9.73786 2.43875 9.70447 2.43875 9.67116 2.44075C7.45079 2.73494 5.41358 3.82774 3.94041 5.51483C2.46725 7.20192 1.65898 9.3678 1.66674 11.6075C1.66674 26.7702 14.0046 39.1078 29.1676 39.1078C31.4074 39.1156 33.5733 38.3073 35.2604 36.8342C36.9475 35.3611 38.0404 33.3239 38.3346 31.1036C38.3538 30.9248 38.3146 30.7446 38.223 30.5899C38.1314 30.4352 37.9922 30.3143 37.8262 30.2452Z" fill="black"/>
</svg>
