<svg width="335" height="335" viewBox="0 0 335 335" fill="none" xmlns="http://www.w3.org/2000/svg">
<path d="M252.429 65.482L262.786 76.3571M99.1429 8H235.857C260.03 8 283.212 17.6025 300.305 34.6951C317.397 51.7877 327 74.9703 327 99.1429V235.857C327 260.03 317.397 283.212 300.305 300.305C283.212 317.397 260.03 327 235.857 327H99.1429C74.9703 327 51.7877 317.397 34.6951 300.305C17.6025 283.212 8 260.03 8 235.857V99.1429C8 74.9703 17.6025 51.7877 34.6951 34.6951C51.7877 17.6025 74.9703 8 99.1429 8ZM167.5 235.857C149.371 235.857 131.984 228.655 119.164 215.836C106.345 203.016 99.1429 185.629 99.1429 167.5C99.1429 149.371 106.345 131.984 119.164 119.164C131.984 106.345 149.371 99.1429 167.5 99.1429C185.629 99.1429 203.016 106.345 215.836 119.164C228.655 131.984 235.857 149.371 235.857 167.5C235.857 185.629 228.655 203.016 215.836 215.836C203.016 228.655 185.629 235.857 167.5 235.857Z" stroke="#616161" stroke-width="15"/>
<rect x="244.143" y="59.2679" width="25.8929" height="25.8929" rx="12.9464" fill="#616161"/>
</svg>
