<svg width="335" height="335" viewBox="0 0 335 335" fill="none" xmlns="http://www.w3.org/2000/svg">
<g clip-path="url(#clip0_662_3)">
<path d="M257.09 59.2679H257.089C249.939 59.2679 244.143 65.0642 244.143 72.2143V72.2144C244.143 79.3645 249.939 85.1608 257.089 85.1608H257.09C264.24 85.1608 270.036 79.3645 270.036 72.2144V72.2143C270.036 65.0642 264.24 59.2679 257.09 59.2679Z" fill="#616161"/>
<path d="M252.929 65.982L263.286 76.8571M99.6429 8.5H236.357C260.53 8.5 283.712 18.1025 300.805 35.1951C317.897 52.2877 327.5 75.4703 327.5 99.6429V236.357C327.5 260.53 317.897 283.712 300.805 300.805C283.712 317.897 260.53 327.5 236.357 327.5H99.6429C75.4703 327.5 52.2877 317.897 35.1951 300.805C18.1025 283.712 8.5 260.53 8.5 236.357V99.6429C8.5 75.4703 18.1025 52.2877 35.1951 35.1951C52.2877 18.1025 75.4703 8.5 99.6429 8.5ZM168 236.357C149.871 236.357 132.484 229.155 119.664 216.336C106.845 203.516 99.6429 186.129 99.6429 168C99.6429 149.871 106.845 132.484 119.664 119.664C132.484 106.845 149.871 99.6429 168 99.6429C186.129 99.6429 203.516 106.845 216.336 119.664C229.155 132.484 236.357 149.871 236.357 168C236.357 186.129 229.155 203.516 216.336 216.336C203.516 229.155 186.129 236.357 168 236.357Z" stroke="#616161" stroke-width="15"/>
</g>
<defs>
<clipPath id="clip0_662_3">
<rect width="335" height="335" fill="white"/>
</clipPath>
</defs>
</svg>
