<svg width="335" height="336" viewBox="0 0 335 336" fill="none" xmlns="http://www.w3.org/2000/svg">
<path d="M326.99 247.307V295.425C327.008 299.892 326.093 304.313 324.304 308.406C322.514 312.499 319.89 316.173 316.598 319.193C313.306 322.212 309.42 324.512 305.189 325.943C300.957 327.374 296.473 327.905 292.025 327.503C242.671 322.134 195.263 305.27 153.606 278.263C114.852 253.637 81.9962 220.781 57.3706 182.027C30.2694 140.181 13.4009 92.5429 8.13019 42.9671C7.72937 38.5317 8.25649 34.0615 9.67798 29.841C11.0995 25.6205 13.3842 21.7422 16.3866 18.4531C19.3891 15.1639 23.0435 12.536 27.1173 10.7366C31.191 8.9372 35.5948 8.00575 40.0483 8.00156H88.166C95.9499 7.92494 103.496 10.6814 109.398 15.757C115.3 20.8327 119.155 27.8813 120.244 35.589C122.27 50.9888 126.037 66.109 131.472 80.6593C133.63 86.4001 134.097 92.6392 132.818 98.6374C131.538 104.635 128.567 110.141 124.254 114.502L103.884 134.872C126.717 175.027 159.965 208.275 200.12 231.107L220.49 210.738C224.851 206.425 230.356 203.453 236.354 202.174C242.352 200.895 248.592 201.362 254.332 203.52C268.883 208.955 284.003 212.722 299.403 214.747C307.194 215.846 314.31 219.771 319.396 225.774C324.483 231.778 327.185 239.441 326.99 247.307Z" stroke="#616161" stroke-width="15" stroke-linecap="round" stroke-linejoin="round"/>
</svg>
