<svg width="335" height="336" viewBox="0 0 335 336" fill="none" xmlns="http://www.w3.org/2000/svg">
<g clip-path="url(#clip0_662_11)">
<path d="M327.49 247.807V295.925C327.508 300.392 326.593 304.813 324.804 308.906C323.014 312.999 320.39 316.673 317.098 319.693C313.806 322.712 309.92 325.012 305.689 326.443C301.457 327.874 296.973 328.405 292.525 328.003C243.171 322.634 195.763 305.77 154.106 278.763C115.352 254.137 82.4962 221.281 57.8706 182.527C30.7694 140.681 13.9009 93.0429 8.63019 43.4671C8.22937 39.0317 8.75649 34.5615 10.178 30.341C11.5995 26.1205 13.8842 22.2422 16.8866 18.9531C19.8891 15.6639 23.5435 13.036 27.6173 11.2366C31.691 9.4372 36.0948 8.50575 40.5483 8.50156H88.666C96.4499 8.42494 103.996 11.1814 109.898 16.257C115.8 21.3327 119.655 28.3813 120.744 36.089C122.77 51.4888 126.537 66.609 131.972 81.1593C134.13 86.9001 134.597 93.1392 133.318 99.1374C132.038 105.135 129.067 110.641 124.754 115.002L104.384 135.372C127.217 175.527 160.465 208.775 200.62 231.607L220.99 211.238C225.351 206.925 230.856 203.953 236.854 202.674C242.852 201.395 249.092 201.862 254.832 204.02C269.383 209.455 284.503 213.222 299.903 215.247C307.694 216.346 314.81 220.271 319.896 226.274C324.983 232.278 327.685 239.941 327.49 247.807Z" stroke="#616161" stroke-width="15" stroke-linecap="round" stroke-linejoin="round"/>
</g>
<defs>
<clipPath id="clip0_662_11">
<rect width="335" height="336" fill="white"/>
</clipPath>
</defs>
</svg>
